<svg width="62" height="48" viewBox="0 0 62 48" fill="none" xmlns="http://www.w3.org/2000/svg">
<g clip-path="url(#clip0_22_137)">
<path fill-rule="evenodd" clip-rule="evenodd" d="M29.8042 47.995L0.580241 14.8788H19.7585L29.8042 47.995ZM30.8688 0.0549771L23.1541 12.6147H39.1536L30.8688 0.0549771ZM41.4645 12.5298L32.882 0H48.7503L41.4645 12.5298ZM21.0148 12.6497L28.5327 0H12.4172L21.0148 12.6497ZM51.3185 1.48938L43.73 12.6147H62L51.3185 1.48938ZM11.2314 1.48938L19.2085 12.6147H0L11.2314 1.48938ZM22.5688 14.7788H39.5371L31.3027 47.5002L22.5688 14.7788ZM32.7508 48L61.6266 14.8788H42.4484L32.7508 48Z" fill="black"/>
<path fill-rule="evenodd" clip-rule="evenodd" d="M29.8042 47.995L0.580241 14.8788H19.7585L29.8042 47.995ZM30.8688 0.0549771L23.1541 12.6147H39.1536L30.8688 0.0549771ZM41.4645 12.5298L32.882 0H48.7503L41.4645 12.5298ZM21.0148 12.6497L28.5327 0H12.4172L21.0148 12.6497ZM51.3185 1.48938L43.73 12.6147H62L51.3185 1.48938ZM11.2314 1.48938L19.2085 12.6147H0L11.2314 1.48938ZM22.5688 14.7788H39.5371L31.3027 47.5002L22.5688 14.7788ZM32.7508 48L61.6266 14.8788H42.4484L32.7508 48Z" fill="url(#paint0_linear_22_137)"/>
</g>
<defs>
<linearGradient id="paint0_linear_22_137" x1="62" y1="24" x2="0" y2="24" gradientUnits="userSpaceOnUse">
<stop stop-color="#FF00CC"/>
<stop offset="0.51" stop-color="#620A9C"/>
<stop offset="1" stop-color="#4D91FF"/>
</linearGradient>
<clipPath id="clip0_22_137">
<rect width="62" height="48" fill="white"/>
</clipPath>
</defs>
</svg>
