<svg width="34" height="51" viewBox="0 0 34 51" fill="none" xmlns="http://www.w3.org/2000/svg">
<path d="M12.6428 26.9726L0.814268 25.8377C0.320431 25.7909 -0.0421082 25.3445 0.00394402 24.8422C0.0147222 24.7306 0.0441173 24.625 0.0901695 24.5294L10.8478 0.537081C10.9977 0.201281 11.324 0.00398576 11.665 0.00298932L26.4438 0C26.9416 0 27.3453 0.410533 27.3453 0.916725C27.3453 1.12199 27.2796 1.31032 27.1679 1.46377L19.5977 13.9492L33.1988 15.4717C33.6926 15.5265 34.0493 15.9789 33.9944 16.4811C33.9736 16.6797 33.8888 16.8657 33.7534 17.0102L6.16613 50.671C5.84964 51.0586 5.2833 51.1114 4.90214 50.7885C4.60427 50.5374 4.50727 50.1309 4.63073 49.7801L12.6428 26.9726Z" fill="black"/>
<path d="M12.6428 26.9726L0.814268 25.8377C0.320431 25.7909 -0.0421082 25.3445 0.00394402 24.8422C0.0147222 24.7306 0.0441173 24.625 0.0901695 24.5294L10.8478 0.537081C10.9977 0.201281 11.324 0.00398576 11.665 0.00298932L26.4438 0C26.9416 0 27.3453 0.410533 27.3453 0.916725C27.3453 1.12199 27.2796 1.31032 27.1679 1.46377L19.5977 13.9492L33.1988 15.4717C33.6926 15.5265 34.0493 15.9789 33.9944 16.4811C33.9736 16.6797 33.8888 16.8657 33.7534 17.0102L6.16613 50.671C5.84964 51.0586 5.2833 51.1114 4.90214 50.7885C4.60427 50.5374 4.50727 50.1309 4.63073 49.7801L12.6428 26.9726Z" fill="url(#paint0_linear_16_383)"/>
<defs>
<linearGradient id="paint0_linear_16_383" x1="34" y1="25.5" x2="0" y2="25.5" gradientUnits="userSpaceOnUse">
<stop stop-color="#FF00CC"/>
<stop offset="0.51" stop-color="#620A9C"/>
<stop offset="1" stop-color="#4D91FF"/>
</linearGradient>
</defs>
</svg>
